            <svg viewBox="0 0 500 500" fill="none" xmlns="http://www.w3.org/2000/svg" class="w-[307px] sm:w-[500px]"><path d="M451.67 117C449.99 114.2 448.24 111.46 446.42 108.78C422.14 73.1096 381.73 48.6896 342.42 37.6296C325.296 32.8898 307.669 30.2043 289.91 29.6296C174.23 25.4296 131.73 120.8 94.4599 145.4C57.1899 170 -5.91278e-05 211.91 7.20994 300.15C12.6499 367.24 50.8199 431.39 120.52 460.58C128.394 463.884 136.474 466.673 144.71 468.93C161.392 473.452 178.53 476.086 195.8 476.78C248.5 479.13 291.29 466.43 333.15 434.44C342.88 427 352.56 418.61 365.15 417.69C374.33 417.03 383.03 420.32 373.44 429.19C362.16 439.62 375.17 460.12 403.79 445.88C451.6 422.08 471.26 370.75 480.52 318.56C491.93 254.49 486.41 174.81 451.67 117Z" fill="red"></path><path opacity="0.7" d="M451.67 117C449.99 114.2 448.24 111.46 446.42 108.78C422.14 73.1096 381.73 48.6896 342.42 37.6296C325.296 32.8898 307.669 30.2043 289.91 29.6296C174.23 25.4296 131.73 120.8 94.4599 145.4C57.1899 170 -5.91278e-05 211.91 7.20994 300.15C12.6499 367.24 50.8199 431.39 120.52 460.58C128.394 463.884 136.474 466.673 144.71 468.93C161.392 473.452 178.53 476.086 195.8 476.78C248.5 479.13 291.29 466.43 333.15 434.44C342.88 427 352.56 418.61 365.15 417.69C374.33 417.03 383.03 420.32 373.44 429.19C362.16 439.62 375.17 460.12 403.79 445.88C451.6 422.08 471.26 370.75 480.52 318.56C491.93 254.49 486.41 174.81 451.67 117Z" fill="white"></path><path d="M206.19 460.54C202.49 460.54 198.66 460.45 194.81 460.28C178.748 459.632 162.809 457.19 147.29 453C139.801 450.941 132.453 448.402 125.29 445.4C66.6 420.84 28.38 366.5 23 300C20.2 265.8 27.78 237 46.15 212C61.66 190.86 82.34 175.72 102.37 162.5C115.44 153.88 127.1 140.82 140.61 125.71C172.36 90.18 211.88 45.96 284.13 45.96C286.34 45.96 288.61 45.96 290.86 46.08C307.303 46.6179 323.625 49.1087 339.48 53.5C378.63 64.5 413.74 88.36 433.41 117.27C434.98 119.58 436.56 122.04 438.09 124.59C472.76 182.32 474.67 261.74 464.89 316.82C455.21 371.39 437.3 406.17 408.89 425.02C408.553 422.97 408.007 420.959 407.26 419.02C402.26 406.23 389.26 398.59 372.58 398.59C371.18 398.59 369.75 398.64 368.33 398.75C348.54 400.19 334.17 411.3 323.68 419.42L321 421.46C285.67 448.49 250.25 460.54 206.19 460.54Z" fill="#263238"></path><path d="M362.53 105.561C365.12 105.561 367.22 103.461 367.22 100.871C367.22 98.2805 365.12 96.1807 362.53 96.1807C359.94 96.1807 357.84 98.2805 357.84 100.871C357.84 103.461 359.94 105.561 362.53 105.561Z" fill="#B2B2B2"></path><path d="M441.07 184.931C443.66 184.931 445.76 182.831 445.76 180.241C445.76 177.651 443.66 175.551 441.07 175.551C438.48 175.551 436.38 177.651 436.38 180.241C436.38 182.831 438.48 184.931 441.07 184.931Z" fill="#B2B2B2"></path><path d="M116.79 407.29C119.38 407.29 121.48 405.19 121.48 402.6C121.48 400.01 119.38 397.91 116.79 397.91C114.199 397.91 112.1 400.01 112.1 402.6C112.1 405.19 114.199 407.29 116.79 407.29Z" fill="#B2B2B2"></path><path d="M402.48 403.22C405.07 403.22 407.17 401.12 407.17 398.53C407.17 395.94 405.07 393.84 402.48 393.84C399.89 393.84 397.79 395.94 397.79 398.53C397.79 401.12 399.89 403.22 402.48 403.22Z" fill="#B2B2B2"></path><path d="M248.49 60.0003C248.49 60.5304 248.333 61.0485 248.038 61.4892C247.744 61.93 247.325 62.2735 246.835 62.4763C246.346 62.6792 245.807 62.7322 245.287 62.6288C244.767 62.5254 244.29 62.2702 243.915 61.8954C243.54 61.5206 243.285 61.043 243.181 60.5232C243.078 60.0033 243.131 59.4644 243.334 58.9747C243.537 58.485 243.88 58.0665 244.321 57.772C244.762 57.4775 245.28 57.3203 245.81 57.3203C246.521 57.3203 247.202 57.6027 247.705 58.1053C248.208 58.6079 248.49 59.2895 248.49 60.0003Z" fill="#B2B2B2"></path><path d="M61.9996 226.521C64.5898 226.521 66.6896 224.421 66.6896 221.831C66.6896 219.24 64.5898 217.141 61.9996 217.141C59.4094 217.141 57.3096 219.24 57.3096 221.831C57.3096 224.421 59.4094 226.521 61.9996 226.521Z" fill="#B2B2B2"></path><path d="M400.24 106.7C401.527 106.7 402.57 105.657 402.57 104.37C402.57 103.083 401.527 102.04 400.24 102.04C398.953 102.04 397.91 103.083 397.91 104.37C397.91 105.657 398.953 106.7 400.24 106.7Z" fill="#B2B2B2"></path><path d="M86.9404 373.591C88.2272 373.591 89.2703 372.548 89.2703 371.261C89.2703 369.974 88.2272 368.931 86.9404 368.931C85.6535 368.931 84.6104 369.974 84.6104 371.261C84.6104 372.548 85.6535 373.591 86.9404 373.591Z" fill="#101F35"></path><path d="M430.61 354.41C431.897 354.41 432.94 353.367 432.94 352.08C432.94 350.793 431.897 349.75 430.61 349.75C429.323 349.75 428.28 350.793 428.28 352.08C428.28 353.367 429.323 354.41 430.61 354.41Z" fill="#101F35"></path><path d="M216.25 416.32C216.252 416.781 216.117 417.233 215.862 417.617C215.607 418.002 215.244 418.302 214.818 418.48C214.393 418.658 213.924 418.705 213.471 418.616C213.019 418.528 212.603 418.307 212.276 417.981C211.949 417.656 211.726 417.24 211.635 416.788C211.545 416.336 211.59 415.867 211.766 415.441C211.942 415.014 212.241 414.65 212.624 414.393C213.008 414.137 213.459 414 213.92 414C214.536 414 215.127 414.244 215.564 414.679C216.001 415.114 216.247 415.704 216.25 416.32Z" fill="#101F35"></path><path d="M96.9998 334.17C96.9998 334.631 96.8632 335.081 96.6072 335.464C96.3511 335.847 95.9872 336.146 95.5615 336.322C95.1357 336.499 94.6673 336.545 94.2153 336.455C93.7633 336.365 93.3481 336.143 93.0223 335.817C92.6964 335.492 92.4745 335.076 92.3846 334.624C92.2947 334.172 92.3409 333.704 92.5172 333.278C92.6936 332.852 92.9922 332.489 93.3754 332.233C93.7585 331.976 94.209 331.84 94.6698 331.84C95.287 331.842 95.8781 332.089 96.3145 332.525C96.7509 332.962 96.9972 333.553 96.9998 334.17Z" fill="#B2B2B2"></path><path d="M193.36 445.78C193.36 446.241 193.224 446.692 192.968 447.075C192.712 447.458 192.348 447.757 191.922 447.933C191.496 448.109 191.028 448.155 190.576 448.065C190.124 447.976 189.709 447.754 189.383 447.428C189.057 447.102 188.835 446.687 188.745 446.235C188.655 445.783 188.701 445.314 188.878 444.889C189.054 444.463 189.353 444.099 189.736 443.843C190.119 443.587 190.569 443.45 191.03 443.45C191.337 443.449 191.64 443.508 191.923 443.625C192.207 443.741 192.464 443.913 192.681 444.13C192.897 444.346 193.069 444.604 193.186 444.887C193.302 445.17 193.362 445.474 193.36 445.78Z" fill="#B2B2B2"></path><path d="M327.41 70.6806C327.41 71.1414 327.273 71.5919 327.017 71.9751C326.761 72.3582 326.397 72.6569 325.972 72.8332C325.546 73.0096 325.077 73.0557 324.625 72.9658C324.173 72.8759 323.758 72.654 323.432 72.3281C323.107 72.0023 322.885 71.5871 322.795 71.1351C322.705 70.6832 322.751 70.2147 322.927 69.7889C323.104 69.3632 323.402 68.9993 323.786 68.7433C324.169 68.4872 324.619 68.3506 325.08 68.3506C325.698 68.3506 326.291 68.5961 326.728 69.033C327.165 69.47 327.41 70.0626 327.41 70.6806Z" fill="#101F35"></path><path d="M331.43 325.221C331.43 325.681 331.293 326.132 331.037 326.515C330.781 326.898 330.417 327.197 329.991 327.373C329.565 327.55 329.097 327.596 328.645 327.506C328.193 327.416 327.778 327.194 327.452 326.868C327.126 326.542 326.904 326.127 326.814 325.675C326.724 325.223 326.771 324.755 326.947 324.329C327.123 323.903 327.422 323.539 327.805 323.283C328.188 323.027 328.639 322.891 329.1 322.891C329.406 322.889 329.709 322.949 329.993 323.065C330.276 323.182 330.533 323.353 330.75 323.57C330.967 323.787 331.138 324.044 331.255 324.327C331.372 324.611 331.431 324.914 331.43 325.221Z" fill="#B2B2B2"></path><path d="M438.32 234.73C438.32 235.192 438.183 235.643 437.927 236.026C437.67 236.409 437.306 236.708 436.879 236.884C436.453 237.06 435.984 237.106 435.532 237.015C435.08 236.924 434.665 236.701 434.339 236.374C434.014 236.048 433.792 235.631 433.704 235.179C433.615 234.726 433.663 234.257 433.84 233.832C434.018 233.406 434.319 233.043 434.703 232.788C435.087 232.533 435.539 232.398 436 232.4C436.616 232.403 437.206 232.65 437.641 233.086C438.076 233.523 438.32 234.114 438.32 234.73Z" fill="#B2B2B2"></path><path d="M57.33 326.27C58.6168 326.27 59.66 325.227 59.66 323.94C59.66 322.654 58.6168 321.61 57.33 321.61C56.0432 321.61 55 322.654 55 323.94C55 325.227 56.0432 326.27 57.33 326.27Z" fill="#101F35"></path><path d="M264.74 431.79C266.027 431.79 267.07 430.747 267.07 429.46C267.07 428.173 266.027 427.13 264.74 427.13C263.453 427.13 262.41 428.173 262.41 429.46C262.41 430.747 263.453 431.79 264.74 431.79Z" fill="#B2B2B2"></path><path d="M180.32 340.98C181.607 340.98 182.65 339.937 182.65 338.65C182.65 337.363 181.607 336.32 180.32 336.32C179.033 336.32 177.99 337.363 177.99 338.65C177.99 339.937 179.033 340.98 180.32 340.98Z" fill="#101F35"></path><path d="M335.49 150.62C335.49 151.081 335.353 151.532 335.097 151.916C334.84 152.299 334.476 152.598 334.049 152.774C333.623 152.95 333.154 152.995 332.702 152.905C332.25 152.814 331.834 152.591 331.509 152.264C331.184 151.937 330.962 151.521 330.874 151.068C330.785 150.616 330.832 150.147 331.01 149.721C331.188 149.296 331.488 148.933 331.873 148.678C332.257 148.423 332.709 148.288 333.17 148.29C333.476 148.29 333.778 148.35 334.06 148.468C334.342 148.585 334.599 148.757 334.814 148.973C335.03 149.19 335.2 149.447 335.316 149.729C335.432 150.012 335.491 150.315 335.49 150.62Z" fill="#101F35"></path><path d="M137.66 393.7V353.7H152.13V356.61H141.46V371.61H150.16V374.38H141.46V390.87H152.23V393.69L137.66 393.7Z" fill="#B2B2B2"></path><path d="M157.37 393.7V353.7H166.37C168.408 353.596 170.438 354.012 172.27 354.91C173.673 355.688 174.762 356.928 175.35 358.42C176.016 360.162 176.336 362.017 176.29 363.88C176.3 365.292 176.135 366.699 175.8 368.07C175.512 369.307 174.937 370.458 174.12 371.43C173.238 372.402 172.054 373.046 170.76 373.26L176.89 393.71H173.23L167.39 374H161.12V393.7H157.37ZM161.12 371.27H166.21C167.562 371.346 168.909 371.056 170.11 370.43C171.048 369.87 171.757 368.995 172.11 367.96C172.547 366.642 172.75 365.258 172.71 363.87C172.846 361.936 172.396 360.006 171.42 358.33C170.57 357.12 168.87 356.51 166.34 356.51H161.15L161.12 371.27Z" fill="#B2B2B2"></path><path d="M182.65 393.701V353.701H191.65C193.691 353.599 195.724 354.015 197.56 354.911C198.963 355.688 200.052 356.929 200.64 358.421C201.307 360.162 201.626 362.017 201.58 363.881C201.59 365.292 201.426 366.699 201.09 368.071C200.802 369.307 200.227 370.458 199.41 371.431C198.529 372.402 197.345 373.047 196.05 373.261L202.17 393.711H198.52L192.68 374.001H186.41V393.701H182.65ZM186.41 371.271H191.5C192.852 371.345 194.199 371.055 195.4 370.431C196.339 369.87 197.048 368.995 197.4 367.961C197.837 366.642 198.04 365.258 198 363.871C198.136 361.936 197.687 360.006 196.71 358.331C195.85 357.121 194.16 356.511 191.62 356.511H186.44L186.41 371.271Z" fill="#B2B2B2"></path><path d="M217.38 394.19C215.205 394.31 213.044 393.77 211.18 392.64C209.67 391.584 208.558 390.053 208.02 388.29C207.377 386.219 207.066 384.059 207.1 381.89V365.3C207.064 363.142 207.402 360.993 208.1 358.95C208.677 357.242 209.807 355.775 211.31 354.78C213.204 353.807 215.302 353.3 217.43 353.3C219.559 353.3 221.657 353.807 223.55 354.78C225.052 355.772 226.176 357.241 226.74 358.95C227.407 360.999 227.725 363.146 227.68 365.3V381.94C227.714 384.098 227.407 386.248 226.77 388.31C226.23 390.061 225.126 391.583 223.63 392.64C221.753 393.781 219.573 394.322 217.38 394.19ZM217.38 391.19C218.81 391.287 220.232 390.915 221.43 390.13C222.381 389.371 223.05 388.315 223.33 387.13C223.696 385.686 223.87 384.2 223.85 382.71V364.61C223.871 363.127 223.696 361.648 223.33 360.21C223.046 359.058 222.375 358.038 221.43 357.32C220.187 356.657 218.8 356.31 217.39 356.31C215.981 356.31 214.594 356.657 213.35 357.32C212.39 358.03 211.708 359.052 211.42 360.21C211.058 361.648 210.886 363.128 210.91 364.61V382.73C210.887 384.22 211.059 385.705 211.42 387.15C211.703 388.341 212.384 389.399 213.35 390.15C214.547 390.92 215.961 391.282 217.38 391.18V391.19Z" fill="#B2B2B2"></path><path d="M233.87 393.7V353.7H242.87C244.908 353.596 246.938 354.012 248.77 354.91C250.172 355.692 251.263 356.931 251.86 358.42C252.521 360.163 252.841 362.017 252.8 363.88C252.805 365.292 252.641 366.698 252.31 368.07C252.018 369.305 251.443 370.456 250.63 371.43C249.747 372.4 248.564 373.044 247.27 373.26L253.39 393.71H249.74L243.9 374H237.63V393.7H233.87ZM237.63 371.27H242.71C244.062 371.346 245.409 371.056 246.61 370.43C247.548 369.869 248.257 368.994 248.61 367.96C249.042 366.641 249.241 365.258 249.2 363.87C249.338 361.937 248.892 360.007 247.92 358.33C247.06 357.12 245.37 356.51 242.83 356.51H237.65L237.63 371.27Z" fill="#B2B2B2"></path><path d="M269.24 393.7V353.7H278.82C280.792 353.595 282.752 354.057 284.47 355.03C285.831 355.91 286.864 357.214 287.41 358.74C288.037 360.532 288.338 362.422 288.3 364.32C288.319 366.098 288.011 367.864 287.39 369.53C286.812 371.087 285.764 372.426 284.39 373.36C282.743 374.38 280.826 374.879 278.89 374.79H273V393.7H269.24ZM273 372H277.79C279.137 372.051 280.479 371.805 281.72 371.28C282.731 370.788 283.517 369.93 283.92 368.88C284.436 367.424 284.67 365.883 284.61 364.34C284.668 362.728 284.465 361.117 284.01 359.57C283.853 359.054 283.589 358.576 283.236 358.168C282.883 357.76 282.448 357.43 281.96 357.2C280.647 356.7 279.244 356.475 277.84 356.54H273V372Z" fill="#B2B2B2"></path><path d="M288.891 393.7L297.341 353.7H301.341L309.841 393.7H306.131L304.131 382.98H294.591L292.591 393.7H288.891ZM295.121 380.26H303.611L299.311 358.68L295.121 380.26Z" fill="#B2B2B2"></path><path d="M323.57 394.24C321.482 394.356 319.412 393.802 317.66 392.66C316.196 391.54 315.142 389.969 314.66 388.19C314.03 386.017 313.73 383.762 313.77 381.5V365.89C313.73 363.637 314.02 361.39 314.63 359.22C315.131 357.462 316.209 355.922 317.69 354.85C319.516 353.871 321.548 353.34 323.619 353.302C325.69 353.264 327.74 353.719 329.6 354.63C331.008 355.558 332.065 356.931 332.6 358.53C333.269 360.551 333.583 362.672 333.53 364.8V366.19H330V364.8C330.033 363.204 329.859 361.611 329.48 360.06C329.22 358.945 328.584 357.953 327.68 357.25C326.54 356.546 325.207 356.218 323.87 356.31C322.407 356.203 320.953 356.622 319.77 357.49C318.817 358.341 318.182 359.491 317.97 360.75C317.675 362.313 317.534 363.9 317.55 365.49V381.94C317.518 383.622 317.693 385.301 318.07 386.94C318.332 388.184 319.014 389.299 320 390.1C321.173 390.903 322.582 391.287 324 391.19C325.322 391.332 326.649 390.968 327.713 390.169C328.776 389.371 329.497 388.199 329.73 386.89C330.118 385.252 330.299 383.573 330.27 381.89V377.2H324.35V374.39H333.73V393.7H331.31L330.87 389.15C330.44 390.602 329.587 391.894 328.42 392.86C327.013 393.87 325.298 394.358 323.57 394.24Z" fill="#B2B2B2"></path><path d="M340.16 393.7V353.7H354.63V356.61H344V371.61H352.7V374.38H344V390.87H354.77V393.69L340.16 393.7Z" fill="#B2B2B2"></path><path d="M121.82 338.88V289.81H62.1602V260.72L114.16 139.18H153.85V262.69H174.31V289.81H153.87V338.88H121.82ZM90.7502 262.69H121.82V175.91L90.7502 262.69ZM244.35 341.83C232.683 341.83 223.017 339.367 215.35 334.44C207.703 329.49 201.705 322.374 198.12 314C194.26 305.28 192.33 295.253 192.33 283.92V195.39C192.33 183.723 194.18 173.493 197.88 164.7C201.287 156.247 207.225 149.055 214.88 144.11C222.52 139.177 232.34 136.71 244.34 136.71C256.34 136.71 266.16 139.177 273.8 144.11C281.45 149.061 287.387 156.251 290.8 164.7C294.5 173.493 296.35 183.723 296.35 195.39V283.9C296.35 295.233 294.417 305.26 290.55 313.98C286.965 322.365 280.958 329.489 273.3 334.44C265.667 339.373 256.017 341.837 244.35 341.83ZM244.35 312.5C249.443 312.5 253.223 310.937 255.69 307.81C258.236 304.49 259.929 300.596 260.62 296.47C261.428 292.16 261.84 287.785 261.85 283.4V195.88C261.852 191.297 261.48 186.722 260.74 182.2C260.15 178.03 258.493 174.082 255.93 170.74C253.47 167.62 249.61 166.057 244.35 166.05C239.09 166.043 235.227 167.607 232.76 170.74C230.219 174.09 228.58 178.035 228 182.2C227.26 186.722 226.889 191.297 226.89 195.88V283.4C226.9 287.791 227.356 292.17 228.25 296.47C229.013 300.596 230.743 304.483 233.3 307.81C235.767 310.943 239.45 312.507 244.35 312.5ZM377.73 338.88V289.81H318.06V260.72L370.06 139.18H409.75V262.69H430.22V289.81H409.77V338.88H377.73ZM346.66 262.69H377.73V175.91L346.66 262.69Z" fill="#D9FF97" stroke="#263238" stroke-miterlimit="10"></path><g opacity="0.3"><path d="M320.7 285.13L320.83 285.25C321.007 285.394 321.194 285.524 321.39 285.64L321.55 285.72C321.726 285.824 321.91 285.914 322.1 285.99L322.3 286.07C322.563 286.178 322.833 286.265 323.11 286.33H323.25C323.51 286.39 323.78 286.44 324.08 286.48H324.36C324.71 286.48 325.08 286.56 325.48 286.57C326.89 286.609 328.293 286.353 329.6 285.82C330.296 285.551 330.966 285.216 331.6 284.82C332.035 284.545 332.455 284.248 332.86 283.93C333.07 283.77 333.27 283.6 333.47 283.42C333.875 283.067 334.259 282.689 334.62 282.29C337.94 278.65 339.89 272.98 338.27 266.29C337.87 264.63 337.44 263.07 336.99 261.57C336.29 259.239 335.452 256.952 334.48 254.72C334.24 254.18 334 253.65 333.74 253.14C333.174 251.985 332.543 250.864 331.85 249.78C331.41 249.09 330.95 248.43 330.48 247.78C329.42 246.372 328.16 245.125 326.74 244.08C326.41 243.84 326.07 243.62 325.74 243.42C325.654 243.366 325.564 243.319 325.47 243.28L318.05 260.61V280C318.76 282 319.24 283.75 320.5 285L320.7 285.13Z" fill="black"></path><path d="M296.371 280V245.67C295.371 245.67 294.491 245.75 293.701 245.8C293.807 240.377 293.198 234.964 291.891 229.7C291.874 226.448 291.206 223.232 289.927 220.241C288.647 217.251 286.782 214.548 284.441 212.29C283.971 205.65 280.261 197.89 276.111 192.45C276.214 192.46 276.318 192.46 276.421 192.45C278.081 192.27 279.121 190.19 279.851 186.61C279.951 186.12 280.031 185.66 280.091 185.22C281.586 184.297 282.852 183.046 283.791 181.56C284.319 180.43 284.657 179.22 284.791 177.98C286.619 176.877 288.274 175.509 289.701 173.92C291.044 172.336 291.923 170.412 292.241 168.36C291.811 167.11 291.341 165.88 290.841 164.68C288.728 159.632 285.735 155 282.001 151C280.919 150.431 279.779 149.982 278.601 149.66C277.531 149.372 276.429 149.217 275.321 149.2C269.254 147.995 263.094 147.326 256.911 147.2C253.911 147.13 251.241 147.2 248.831 147.29C246.758 146.39 244.487 146.045 242.241 146.29C240.856 146.435 239.505 146.807 238.241 147.39C234.72 146.446 231.06 146.135 227.431 146.47C226.671 146.56 225.921 146.65 225.191 146.76C225.191 146.38 225.141 146 225.091 145.62C225.011 144.89 224.901 144.17 224.771 143.46C224.85 142.128 224.85 140.792 224.771 139.46C221.248 140.559 217.885 142.12 214.771 144.1C207.116 149.045 201.178 156.237 197.771 164.69C194.071 173.483 192.221 183.713 192.221 195.38V204.16C195.801 208.79 200.121 213.98 202.971 215.97L203.591 216.61C203.791 220.06 204.401 227.83 205.901 230.39C205.901 230.39 204.721 234.51 206.721 236.6C206.111 241.22 205.301 252.79 210.101 264.19C213.831 273.04 220.191 277.82 226.731 279.34V195.88C226.782 191.293 227.207 186.718 228.001 182.2C228.595 178.031 230.251 174.084 232.811 170.74C235.277 167.62 239.141 166.057 244.401 166.05C249.661 166.043 253.521 167.607 255.981 170.74C258.544 174.082 260.201 178.03 260.791 182.2C261.531 186.722 261.902 191.297 261.901 195.88V283.4C261.901 284.88 261.831 286.4 261.741 287.86C261.791 288.14 261.851 288.41 261.921 288.66C262.002 288.937 262.102 289.207 262.221 289.47C262.24 289.522 262.263 289.572 262.291 289.62C262.377 289.801 262.477 289.975 262.591 290.14L262.681 290.26C262.809 290.439 262.956 290.603 263.121 290.75C263.275 290.887 263.442 291.007 263.621 291.11L263.761 291.19L264.261 291.43H264.361C264.571 291.51 264.791 291.58 265.031 291.65H265.191C265.381 291.71 265.591 291.76 265.801 291.81L266.031 291.87L266.781 292.04C270.401 292.88 276.581 287.97 278.161 283.04C278.491 281.967 278.739 280.871 278.901 279.76L279.501 279.67C285.054 280.837 290.776 280.949 296.371 280ZM273.421 189.33L273.481 188.9C273.431 189 273.421 189.18 273.421 189.29V189.33ZM273.731 186.84C273.791 186.33 273.861 185.84 273.921 185.34C273.871 185.83 273.791 186.33 273.731 186.8V186.84Z" fill="black"></path><path d="M153.87 207.26C152.58 210.49 151.44 213.4 150.87 215.02C149.03 220.19 147.1 226.02 147.14 229.36C147.18 232.7 149.25 236.98 150.87 237.12C152.49 237.26 153.64 236.19 153.87 233.94V207.26Z" fill="black"></path></g><path d="M269.13 217.18C269.747 222.186 270.06 227.225 270.07 232.27C270.01 239.87 271.79 240.03 275.42 240.87C279.05 241.71 285.22 236.8 286.8 231.87C288.38 226.94 288.23 217.41 288.23 217.41L269.13 217.18Z" fill="#DEDEDE"></path><path d="M276.29 241.46C275.954 241.464 275.618 241.43 275.29 241.36L274.95 241.28C271.17 240.41 269.5 239.71 269.56 232.28C269.548 227.266 269.238 222.257 268.63 217.28L268.55 216.71L288.71 216.94V217.43C288.71 217.82 288.84 227.09 287.25 232.05C285.66 237.01 280.2 241.46 276.29 241.46ZM269.7 217.69C270.271 222.529 270.561 227.397 270.57 232.27C270.51 239.27 271.88 239.54 275.19 240.27L275.53 240.35C278.88 241.13 284.83 236.35 286.32 231.68C287.66 227.51 287.74 219.87 287.73 217.87L269.7 217.69Z" fill="#263238"></path><path d="M285.67 226.34C285.5 229.71 284.5 235.12 279.49 237.78C278.093 238.528 276.52 238.886 274.937 238.818C273.353 238.749 271.818 238.256 270.49 237.39C271.23 240.03 272.86 240.29 275.38 240.87C279 241.71 285.18 236.8 286.76 231.87C288.34 226.94 288.19 217.41 288.19 217.41H285.96C285.92 219.88 285.78 224.07 285.67 226.34Z" fill="#DEDEDE"></path><path d="M276.291 241.46C275.955 241.464 275.619 241.431 275.291 241.36L274.961 241.28C272.651 240.75 270.831 240.33 270.041 237.52L269.681 236.26L270.791 236.97C272.041 237.777 273.484 238.236 274.971 238.301C276.457 238.366 277.934 238.035 279.251 237.34C283.811 234.91 284.981 230 285.161 226.34C285.281 223.91 285.431 219.27 285.491 217.39V216.9H288.701V217.39C288.701 217.78 288.831 227.05 287.241 232.01C285.651 236.97 280.201 241.46 276.291 241.46ZM271.541 238.46C272.261 239.6 273.421 239.87 275.191 240.28L275.531 240.35C278.881 241.13 284.831 236.35 286.321 231.68C287.661 227.51 287.741 219.87 287.731 217.87H286.481C286.411 219.98 286.281 224.1 286.171 226.35C285.981 230.3 284.701 235.56 279.731 238.21C278.481 238.888 277.09 239.266 275.669 239.315C274.247 239.364 272.834 239.081 271.541 238.49V238.46Z" fill="#263238"></path><path d="M251.9 224.351C256.731 224.027 261.484 222.975 266 221.231C274.15 218.231 283.3 211.401 281.34 204.731C279.38 198.061 268.76 196.211 264.57 196.661C261.539 197.044 258.534 197.609 255.57 198.351C255.57 198.351 256.59 217.131 251.9 224.351Z" fill="#DEDEDE"></path><path d="M251 224.87L251.51 224.08C256.06 217.08 255.15 198.56 255.14 198.37V197.96L255.54 197.86C258.524 197.117 261.549 196.549 264.6 196.16C268.84 195.71 279.82 197.48 281.91 204.59C283.86 211.23 275.31 218.36 266.26 221.7C261.684 223.481 256.86 224.543 251.96 224.85L251 224.87ZM256.16 198.73C256.27 201.5 256.71 216.62 252.84 223.8C257.305 223.37 261.695 222.362 265.9 220.8C274.51 217.62 282.71 210.97 280.9 204.91C279 198.46 268.51 196.78 264.66 197.2C261.789 197.543 258.941 198.054 256.13 198.73H256.16Z" fill="#263238"></path><path d="M248 227.08C251.367 226.267 254.382 224.391 256.6 221.73C259.85 217.49 261.05 210.65 259.31 206.07C257.57 201.49 248 227.08 248 227.08Z" fill="#D9FF97"></path><path d="M247.17 227.751L247.49 226.9C249.41 221.77 255.9 205.031 258.7 205.021C258.96 205.021 259.45 205.131 259.7 205.891C261.48 210.591 260.26 217.681 256.92 222.031C254.634 224.795 251.51 226.74 248.02 227.571L247.17 227.751ZM258.67 206.001C257.3 206.001 252.54 216.391 248.77 226.321C251.666 225.455 254.239 223.745 256.16 221.411C259.31 217.311 260.47 210.641 258.81 206.241C258.785 206.15 258.737 206.067 258.67 206.001Z" fill="#263238"></path><path d="M215.83 183.24C215.83 183.24 212.69 198.24 218.83 212.93C224.97 227.62 238.47 231.11 247.92 227.08C257.37 223.05 259.63 209.74 259.73 200.89C259.83 192.04 259.57 188.02 259.57 188.02C259.57 188.02 227.81 191.12 215.83 183.24Z" fill="#DEDEDE"></path><path d="M240.231 229.13C237.468 229.125 234.733 228.592 232.171 227.56C227.951 225.85 222.171 221.95 218.411 213.12C212.241 198.46 215.301 183.29 215.341 183.12L215.491 182.4L216.101 182.8C227.801 190.5 259.241 187.53 259.561 187.5L260.071 187.45V187.97C260.071 187.97 260.331 192.12 260.231 200.88C260.161 207.37 258.831 222.95 248.111 227.52C245.619 228.58 242.939 229.128 240.231 229.13ZM216.231 184.06C215.721 187.2 214.081 200.16 219.371 212.74C222.961 221.25 228.541 224.99 232.591 226.63C237.463 228.634 242.928 228.634 247.801 226.63C257.981 222.29 259.241 207.19 259.311 200.9C259.391 193.9 259.241 189.9 259.181 188.58C254.901 188.94 227.861 191 216.191 184.06H216.231Z" fill="#263238"></path><path d="M214.67 179.13C214.67 179.13 213.26 184.05 216.11 185.86C218.96 187.67 233.67 196.31 251.11 193C260.87 191.15 258.72 188.29 258.55 186.72C258.38 185.15 214.67 179.13 214.67 179.13Z" fill="#D9FF97"></path><path d="M243.131 194.25C233.482 194.075 224.057 191.313 215.841 186.25C212.721 184.25 214.131 179.18 214.191 178.96L214.311 178.54L214.741 178.6C214.851 178.6 225.811 180.13 236.641 181.81C258.931 185.27 259.021 186.03 259.081 186.64C259.11 186.835 259.15 187.029 259.201 187.22C259.371 187.69 259.436 188.191 259.391 188.689C259.346 189.187 259.192 189.668 258.941 190.1C257.991 191.58 255.541 192.65 251.241 193.46C248.568 193.978 245.853 194.242 243.131 194.25ZM215.051 179.69C214.811 180.85 214.331 184.14 216.381 185.44C219.141 187.19 233.781 195.78 251.051 192.51C254.961 191.77 257.331 190.79 258.101 189.59C258.273 189.269 258.374 188.913 258.396 188.549C258.419 188.185 258.362 187.82 258.231 187.48C258.177 187.293 258.137 187.113 258.111 186.94C256.001 185.7 230.941 181.88 215.051 179.69Z" fill="#263238"></path><path d="M212.29 163.67C212.29 163.67 212.72 175.81 214.67 179.13C216.62 182.45 242.44 192.54 255.55 189.7C268.66 186.86 290 175.18 292.6 166.6C295.2 158.02 288.44 144.52 282.08 138.02C275.72 131.52 272.93 130.24 272.93 130.24C272.93 130.24 257.35 151 238 157.88C218.65 164.76 212.29 163.67 212.29 163.67Z" fill="white"></path><path d="M250.25 190.7C236.32 190.7 216.12 182.58 214.25 179.38C212.25 175.99 211.81 164.19 211.8 163.69V163.08L212.4 163.18C212.46 163.18 218.89 164.13 237.83 157.41C256.77 150.69 272.41 130.15 272.56 129.94L272.81 129.62L273.17 129.79C273.29 129.84 276.12 131.19 282.47 137.67C288.82 144.15 295.86 157.67 293.11 166.75C290.36 175.83 268.5 187.42 255.69 190.19C253.899 190.549 252.076 190.72 250.25 190.7ZM212.81 164.22C212.93 166.64 213.47 176.1 215.1 178.88C216.73 181.66 242.17 192.08 255.45 189.21C269.07 186.21 289.69 174.47 292.12 166.46C294.72 157.87 287.63 144.4 281.72 138.37C276.72 133.31 273.98 131.44 273.07 130.89C270.91 133.64 256.07 151.99 238.14 158.35C221.9 164.11 214.8 164.32 212.81 164.22Z" fill="#263238"></path><path d="M315.21 194.34C315.21 194.34 328.93 188.97 334.41 192.26C339.89 195.55 344.08 203.26 346.96 215.09C349.84 226.92 341.42 235.64 334.15 235.37C326.88 235.1 328.15 230.37 325.32 225.56C322.49 220.75 319.01 217.95 318.78 217.44C318.55 216.93 322 201.73 315.21 194.34Z" fill="white"></path><path d="M334.491 235.88H334.131C328.601 235.68 327.661 232.88 326.561 229.75C326.138 228.386 325.575 227.069 324.881 225.82C323.316 223.219 321.424 220.83 319.251 218.71C318.897 218.423 318.588 218.086 318.331 217.71C318.231 217.5 318.261 217.3 318.411 216.11C318.901 212.31 320.411 200.75 314.851 194.74L314.351 194.2L315.031 193.94C315.601 193.71 329.031 188.51 334.671 191.94C340.311 195.37 344.531 203 347.441 215C348.169 217.699 348.259 220.529 347.703 223.268C347.148 226.007 345.962 228.579 344.241 230.78C343.087 232.292 341.616 233.532 339.932 234.413C338.247 235.294 336.39 235.795 334.491 235.88ZM319.271 217.28C319.381 217.41 319.681 217.71 319.961 218C322.2 220.175 324.147 222.633 325.751 225.31C326.47 226.616 327.06 227.989 327.511 229.41C328.561 232.48 329.331 234.69 334.171 234.87C337.471 234.99 340.941 233.22 343.471 230.12C345.095 228.038 346.213 225.605 346.733 223.015C347.254 220.425 347.164 217.749 346.471 215.2C343.621 203.46 339.471 195.88 334.151 192.69C329.621 189.96 318.851 193.55 316.061 194.56C321.351 201.02 319.891 212.37 319.401 216.18C319.341 216.62 319.291 217.08 319.271 217.28Z" fill="#263238"></path><path d="M334.41 192.26C332.628 191.394 330.639 191.048 328.67 191.26C331.45 193.32 336.93 198.34 340.52 207.89C345.52 221.12 343.24 228.08 340.7 230.65C338.16 233.22 332.78 234.16 330.45 233.88L329.15 233.73C330.15 234.73 331.64 235.33 334.15 235.42C341.42 235.69 349.84 227.01 346.96 215.14C344.08 203.27 339.89 195.55 334.41 192.26Z" fill="white"></path><path d="M334.49 235.88H334.13C331.68 235.79 329.99 235.21 328.8 234.04L327.75 233.04L330.51 233.37C332.63 233.62 337.87 232.78 340.34 230.28C343.17 227.42 344.57 220.09 340.05 208.05C336.54 198.7 331.23 193.76 328.37 191.64L327.24 190.8L328.65 190.74C330.716 190.531 332.799 190.919 334.65 191.86C340.21 195.2 344.51 202.98 347.42 215C348.148 217.698 348.238 220.528 347.683 223.267C347.128 226.006 345.942 228.578 344.22 230.78C343.069 232.288 341.601 233.527 339.92 234.408C338.239 235.289 336.386 235.791 334.49 235.88ZM331.23 234.38C332.179 234.695 333.171 234.86 334.17 234.87C337.47 234.99 340.94 233.22 343.47 230.12C345.095 228.037 346.212 225.604 346.733 223.014C347.254 220.424 347.164 217.749 346.47 215.2C343.62 203.46 339.47 195.88 334.15 192.69C332.92 192.03 331.546 191.686 330.15 191.69C335.095 195.978 338.835 201.483 341 207.66C346.9 223.37 342.54 229.46 341.06 230.95C338.6 233.43 333.85 234.4 331.23 234.38Z" fill="#263238"></path><path d="M286.21 228C286.21 228 299.15 231.72 311.21 226.88C323.27 222.04 330.3 214.04 327.65 204.26C325 194.48 320.01 194.14 309.08 194.26C298.15 194.38 295.95 195.33 295.95 195.33C295.95 195.33 295.54 223 286.21 228Z" fill="white"></path><path d="M297.391 229.89C293.575 229.911 289.771 229.45 286.071 228.52L284.891 228.19L285.971 227.6C294.971 222.72 295.401 195.65 295.401 195.37V195.05L295.691 194.92C295.791 194.92 298.101 193.92 309.011 193.81C319.921 193.7 325.331 194.07 328.071 204.17C330.631 213.61 324.531 222.07 311.341 227.39C306.891 229.1 302.157 229.948 297.391 229.89ZM287.451 227.83C290.811 228.58 301.271 230.37 310.971 226.46C323.641 221.36 329.531 213.33 327.121 204.46C324.561 195.03 320.001 194.71 309.041 194.84C300.381 194.94 297.281 195.54 296.401 195.78C296.321 199 295.521 221.74 287.451 227.83Z" fill="#263238"></path><path d="M300.444 181.25C301.687 168.076 292.835 156.466 280.673 155.318C268.51 154.17 257.643 163.92 256.4 177.094C255.157 190.268 264.009 201.879 276.172 203.026C288.334 204.174 299.201 194.424 300.444 181.25Z" fill="#D9FF97"></path><path d="M278.11 203.63C277.442 203.632 276.775 203.599 276.11 203.53C263.69 202.36 254.62 190.48 255.89 177.05C257.16 163.62 268.29 153.65 280.7 154.82C283.714 155.114 286.633 156.037 289.268 157.529C291.903 159.02 294.196 161.047 296 163.48C299.852 168.578 301.638 174.942 301 181.3C299.75 194 289.71 203.63 278.11 203.63ZM278.74 155.73C267.65 155.73 258.05 164.95 256.9 177.15C255.69 190.03 264.35 201.42 276.22 202.54C288.09 203.66 298.73 194.09 299.95 181.21C300.58 175.104 298.88 168.985 295.19 164.08C293.473 161.764 291.291 159.833 288.783 158.411C286.276 156.988 283.499 156.106 280.63 155.82C280.003 155.76 279.373 155.73 278.74 155.73Z" fill="#263238"></path><path d="M305.122 208.934C306.25 196.981 298.223 186.447 287.193 185.406C276.163 184.365 266.308 193.212 265.18 205.166C264.052 217.119 272.079 227.653 283.109 228.694C294.139 229.735 303.995 220.888 305.122 208.934Z" fill="#D9FF97"></path><path d="M284.881 229.28C284.281 229.28 283.681 229.28 283.071 229.19C280.338 228.921 277.692 228.083 275.303 226.729C272.914 225.375 270.835 223.536 269.201 221.33C265.704 216.69 264.093 210.899 264.691 205.12C265.841 192.92 275.961 183.84 287.251 184.92C298.541 186 306.791 196.78 305.641 208.99C304.551 220.54 295.421 229.28 284.881 229.28ZM285.451 185.83C275.451 185.83 266.731 194.18 265.681 205.22C265.115 210.745 266.654 216.28 269.991 220.72C271.544 222.818 273.519 224.567 275.789 225.855C278.059 227.143 280.573 227.942 283.171 228.2C293.901 229.2 303.541 220.55 304.641 208.89C305.741 197.23 297.901 186.89 287.161 185.89C286.591 185.86 286.001 185.83 285.451 185.83Z" fill="#263238"></path><path d="M302.36 194.68C302.36 194.68 303.26 175.33 293.81 164.68C284.36 154.03 262.87 162.74 259.3 178.68C255.73 194.62 263.3 218.51 273.13 224.68C282.96 230.85 291.33 224.82 296.94 216.26C302.55 207.7 302.36 194.68 302.36 194.68Z" fill="white"></path><path d="M281.191 227.75C278.22 227.687 275.329 226.774 272.861 225.12C262.631 218.71 255.281 194.36 258.811 178.59C261.041 168.59 269.691 162.21 277.281 160.24C284.111 158.47 290.281 159.98 294.181 164.37C303.611 174.97 302.901 193.69 302.861 194.69C302.861 195.42 302.931 208.04 297.361 216.56C294.271 221.27 288.661 227.75 281.191 227.75ZM282.711 160.52C280.962 160.532 279.222 160.764 277.531 161.21C270.241 163.1 261.921 169.27 259.791 178.81C256.331 194.25 263.451 218.05 273.391 224.27C284.321 231.12 292.571 222.03 296.521 216.01C301.971 207.68 301.861 194.81 301.861 194.69C301.861 194.49 302.641 175.42 293.431 165.07C292.078 163.584 290.419 162.407 288.569 161.622C286.718 160.837 284.72 160.461 282.711 160.52Z" fill="#263238"></path><path d="M168.85 140.49C168.85 140.49 161.37 158.59 159.53 163.75C157.69 168.91 155.75 174.75 155.8 178.09C155.85 181.43 157.91 185.71 159.52 185.85C161.13 185.99 162.3 184.91 162.52 182.64C162.74 180.37 162.65 179.43 163.79 178.18C165.388 176.712 167.123 175.399 168.97 174.26C169.43 174.05 169.78 175.77 168.7 177.65C167.62 179.53 165.25 181.23 166.7 183.14C168.15 185.05 171.14 182.82 172.7 181.21C174.577 179.195 175.909 176.734 176.57 174.06C177.22 171.27 176.9 165.38 176.9 165.38L190.12 152.9C190.12 152.9 172.69 150.8 168.85 140.49Z" fill="#DEDEDE"></path><path d="M159.81 186.37H159.48C157.42 186.19 155.34 181.49 155.3 178.12C155.26 174.75 157.08 169.12 159.05 163.61C160.88 158.49 168.31 140.5 168.38 140.31L168.87 139.14L169.32 140.33C173.01 150.23 190.1 152.4 190.32 152.42L191.38 152.55L177.56 165.6C177.61 166.74 177.79 171.6 177.19 174.2C176.503 176.958 175.127 179.498 173.19 181.58C172.32 182.46 170.07 184.51 168.13 184.4C167.791 184.383 167.46 184.291 167.16 184.13C166.861 183.97 166.601 183.744 166.4 183.47C165.06 181.75 166.27 180.19 167.34 178.81C167.7 178.366 168.034 177.902 168.34 177.42C168.808 176.666 169.025 175.784 168.96 174.9C167.283 175.976 165.7 177.193 164.23 178.54C163.38 179.47 163.31 180.18 163.18 181.75C163.18 182.05 163.12 182.36 163.09 182.75C162.8 185 161.6 186.37 159.81 186.37ZM168.86 141.77C167.21 145.77 161.55 159.56 160 163.92C158.14 169.12 156.26 174.86 156.3 178.08C156.3 181.55 158.43 185.25 159.57 185.35C161.45 185.52 161.93 183.69 162.04 182.59C162.04 182.25 162.1 181.93 162.13 181.65C162.27 180.01 162.36 179.02 163.45 177.84C165.09 176.333 166.876 174.993 168.78 173.84C168.916 173.776 169.07 173.759 169.216 173.792C169.363 173.824 169.494 173.904 169.59 174.02C170.12 174.61 170.08 176.32 169.15 177.94C168.834 178.465 168.479 178.966 168.09 179.44C166.97 180.89 166.33 181.82 167.15 182.88C167.265 183.04 167.415 183.171 167.588 183.265C167.762 183.358 167.954 183.411 168.15 183.42C169.4 183.49 171.15 182.17 172.43 180.9C174.245 178.952 175.533 176.574 176.17 173.99C176.8 171.3 176.5 165.51 176.5 165.45V165.22L189.14 153.28C185.39 152.63 172.89 150 168.86 141.77Z" fill="#263238"></path><path d="M174.28 179.3C172.2 179.25 170.71 178.75 169.87 177.82C169.419 177.345 169.169 176.714 169.17 176.06L170.17 176.14C170.194 176.518 170.358 176.875 170.63 177.14C171.09 177.63 172.09 178.22 174.3 178.27L174.28 179.3Z" fill="#263238"></path><path d="M162.701 178.76C161.299 178.751 159.938 178.292 158.816 177.451C157.695 176.611 156.873 175.433 156.471 174.09L157.471 173.83C157.856 175.144 158.717 176.267 159.886 176.98C161.054 177.694 162.446 177.947 163.791 177.69L163.921 178.69C163.516 178.739 163.108 178.762 162.701 178.76Z" fill="#263238"></path><path d="M159.51 182.47C158.314 182.44 157.158 182.03 156.21 181.3L156.82 180.51C156.94 180.6 159.75 182.72 161.89 180.36L162.63 181.03C162.245 181.482 161.767 181.844 161.228 182.093C160.689 182.342 160.103 182.47 159.51 182.47Z" fill="#263238"></path><path d="M175.78 165.91C171.21 165.91 167.78 164.76 165.48 162.49C163.778 160.772 162.813 158.458 162.79 156.04H163.79C163.836 158.184 164.698 160.23 166.2 161.76C168.46 164.01 172.08 165.04 176.97 164.84L177.02 165.84L175.78 165.91Z" fill="#263238"></path><path d="M172.59 135.12C172.59 135.12 169.07 135.18 168.85 140.49C168.63 145.8 172.85 153.98 181.03 155.33C189.21 156.68 194.26 151.82 195.74 147.81C197.22 143.8 178.17 132 172.59 135.12Z" fill="#D9FF97"></path><path d="M183.76 156.07C182.819 156.067 181.879 155.987 180.95 155.83C172.48 154.42 168.12 145.83 168.35 140.46C168.56 135.37 171.73 134.71 172.44 134.63C176.69 132.38 187.25 137.63 192.71 142.27C194.66 143.93 196.85 146.27 196.21 147.99C195.208 150.447 193.477 152.537 191.252 153.982C189.026 155.426 186.412 156.155 183.76 156.07ZM172.6 135.62C172.46 135.62 169.6 135.78 169.35 140.51C169.13 145.51 173.2 153.51 181.11 154.84C189.66 156.26 194.11 150.75 195.27 147.64C195.53 146.95 194.82 145.38 192.07 143.03C186.84 138.59 176.46 133.49 172.83 135.55L172.72 135.61L172.6 135.62Z" fill="#263238"></path><path d="M181.751 120.67C181.751 120.67 173.111 131.06 171.601 136.34C170.091 141.62 173.861 151.34 183.441 152.51C193.021 153.68 198.721 145.73 198.721 145.73L181.751 120.67Z" fill="#DEDEDE"></path><path d="M185.37 153.13C184.702 153.129 184.034 153.089 183.37 153.01C181.328 152.767 179.364 152.079 177.615 150.996C175.867 149.913 174.377 148.46 173.25 146.74C171.07 143.43 170.25 139.3 171.11 136.21C172.63 130.88 181 120.78 181.35 120.35L181.78 119.84L199.32 145.73L199.12 146.02C199.07 146.09 193.94 153.13 185.37 153.13ZM181.71 121.51C179.96 123.66 173.35 132.02 172.08 136.51C171.29 139.29 172.08 143.19 174.08 146.22C175.118 147.828 176.501 149.185 178.128 150.192C179.756 151.199 181.588 151.83 183.49 152.04C191.66 153.04 196.98 147.1 198.08 145.74L181.71 121.51Z" fill="#263238"></path><path d="M186.69 112.29C182.837 115.854 180.479 120.746 180.09 125.98C179.66 134.45 187.46 144.22 197.64 143.28C207.82 142.34 195.07 111.88 186.69 112.29Z" fill="#D9FF97"></path><path d="M196.29 143.84C192.136 143.796 188.164 142.131 185.22 139.2C183.418 137.51 181.987 135.464 181.018 133.192C180.049 130.92 179.563 128.471 179.59 126C179.975 120.638 182.401 115.627 186.37 112L186.5 111.9H186.86C193.35 111.9 201.26 127.73 201.86 136.45C202.18 140.98 200.69 143.62 197.68 143.9C197.22 143.82 196.76 143.84 196.29 143.84ZM186.89 112.78C183.223 116.253 180.978 120.965 180.59 126C180.562 128.336 181.02 130.652 181.936 132.801C182.852 134.949 184.205 136.884 185.91 138.48C187.429 140.004 189.261 141.178 191.28 141.921C193.299 142.664 195.456 142.957 197.6 142.78C200.65 142.5 201.07 139.16 200.87 136.4C200.23 127.3 192.38 112.82 186.89 112.78Z" fill="#263238"></path><path d="M191 118.56C191 118.56 186.41 124 189 133.18C190.584 138.7 193.734 143.643 198.07 147.41C198.07 147.41 210.6 165.41 215.86 168.22C221.12 171.03 230.43 171.12 249.29 163.46C268.15 155.8 275.59 144.59 278.48 138.84C281.37 133.09 264.41 106.58 258.55 102.73C252.856 99.1954 246.163 97.6187 239.49 98.2397C235.89 98.6691 232.322 99.3373 228.81 100.24L191 118.56Z" fill="#D9FF97"></path><path d="M224 170.47C221.094 170.562 218.21 169.941 215.6 168.66C210.39 165.9 198.6 149.09 197.67 147.76C193.277 143.936 190.088 138.92 188.49 133.32C185.85 124.01 190.33 118.47 190.49 118.24L190.66 118.11L228.6 99.7498C232.163 98.8352 235.785 98.167 239.44 97.7498C246.228 97.1288 253.034 98.7329 258.83 102.32C264.71 106.18 282.05 132.89 278.94 139.07C275.21 146.47 267.08 156.8 249.49 163.94C238.69 168.31 230.35 170.47 224 170.47ZM191.27 119C190.75 119.7 187.17 124.89 189.49 133.09C191.055 138.512 194.144 143.372 198.39 147.09L198.49 147.19C198.62 147.37 211.01 165.14 216.11 167.84C222.31 171.13 233.11 169.57 249.11 163.07C266.41 156.07 274.39 145.93 278.04 138.68C280.66 133.46 264.21 107.11 258.27 103.22C252.672 99.7523 246.098 98.2008 239.54 98.7998C235.967 99.2337 232.426 99.9018 228.94 100.8L191.27 119Z" fill="#263238"></path><path d="M187.59 115.55C187.59 115.55 183.06 121.01 185.66 130.17C187.244 135.691 190.394 140.634 194.73 144.4C194.73 144.4 207.26 162.4 212.52 165.2C217.78 168 227.09 168.1 245.95 160.45C264.81 152.8 272.24 141.58 275.14 135.82C278.04 130.06 261.07 103.57 255.21 99.7199C249.515 96.1807 242.817 94.6037 236.14 95.2299C232.543 95.6599 228.979 96.328 225.47 97.2299L187.59 115.55Z" fill="white"></path><path d="M220.691 167.46C217.785 167.554 214.9 166.932 212.291 165.65C207.081 162.88 195.291 146.08 194.361 144.74C189.965 140.923 186.776 135.909 185.181 130.31C182.541 121 187.021 115.46 187.181 115.23L187.351 115.1L225.221 96.7399C228.784 95.8253 232.406 95.1571 236.061 94.7399C242.849 94.1138 249.656 95.7182 255.451 99.3099C261.331 103.17 278.671 129.88 275.561 136.06C271.831 143.46 263.701 153.79 246.111 160.92C235.341 165.3 227.001 167.46 220.691 167.46ZM187.921 116C187.401 116.7 183.821 121.89 186.141 130.09C187.696 135.517 190.786 140.379 195.041 144.09L195.141 144.2C195.271 144.38 207.661 162.15 212.761 164.85C218.961 168.14 229.761 166.57 245.761 160.08C263.071 153.08 271.051 142.94 274.691 135.69C277.321 130.47 260.871 104.12 254.931 100.23C249.333 96.7624 242.758 95.211 236.201 95.8099C232.627 96.2439 229.086 96.912 225.601 97.8099L187.921 116Z" fill="#263238"></path><path d="M232.888 105.254C237.199 90.1215 228.426 74.3597 213.293 70.049C198.161 65.7384 182.399 74.5113 178.088 89.6439C173.778 104.777 182.551 120.538 197.683 124.849C212.816 129.16 228.578 120.387 232.888 105.254Z" fill="#D9FF97"></path><path d="M205.43 126.44C197.877 126.426 190.628 123.466 185.224 118.189C179.82 112.913 176.688 105.736 176.494 98.1853C176.3 90.6349 179.059 83.3067 184.185 77.7594C189.311 72.2121 196.399 68.8835 203.941 68.4816C211.483 68.0796 218.885 70.6361 224.571 75.6072C230.258 80.5782 233.78 87.5717 234.39 95.1C234.999 102.628 232.648 110.097 227.835 115.919C223.023 121.74 216.129 125.454 208.62 126.27C207.561 126.386 206.496 126.443 205.43 126.44ZM205.54 69.4404C204.511 69.4424 203.483 69.4992 202.46 69.6104C195.249 70.4107 188.635 73.9925 184.024 79.5941C179.413 85.1956 177.169 92.375 177.769 99.6055C178.369 106.836 181.766 113.547 187.238 118.312C192.71 123.076 199.824 125.518 207.069 125.118C214.313 124.718 221.116 121.508 226.03 116.17C230.944 110.833 233.582 103.789 233.383 96.5359C233.184 89.2833 230.163 82.3945 224.964 77.3344C219.764 72.2743 212.796 69.4422 205.54 69.4404Z" fill="#263238"></path><path d="M226.648 109.953C237.65 96.0024 235.259 75.7743 221.309 64.7724C207.358 53.7705 187.13 56.1611 176.128 70.1119C165.126 84.0627 167.516 104.291 181.467 115.293C195.418 126.295 215.646 123.904 226.648 109.953Z" fill="#ABABAB"></path><path d="M201.33 122.71C195.022 122.698 188.852 120.86 183.566 117.418C178.279 113.976 174.102 109.077 171.539 103.313C168.976 97.5483 168.137 91.1653 169.123 84.9345C170.109 78.7036 172.878 72.8914 177.095 68.1999C181.312 63.5083 186.797 60.1381 192.888 58.4961C198.979 56.8542 205.415 57.0108 211.419 58.9471C217.423 60.8833 222.738 64.5164 226.722 69.4075C230.706 74.2987 233.189 80.2386 233.87 86.5101C234.798 95.1295 232.264 103.764 226.826 110.516C221.387 117.267 213.49 121.581 204.87 122.51C203.695 122.639 202.513 122.706 201.33 122.71ZM201.41 58.3601C200.261 58.3644 199.113 58.4278 197.97 58.5501C191.744 59.2273 185.858 61.7357 181.057 65.7579C176.256 69.7801 172.755 75.1356 170.997 81.1473C169.24 87.1589 169.304 93.5567 171.183 99.5317C173.061 105.507 176.669 110.791 181.55 114.715C186.431 118.64 192.366 121.029 198.605 121.581C204.844 122.133 211.106 120.822 216.601 117.815C222.095 114.808 226.574 110.239 229.472 104.687C232.369 99.134 233.556 92.8469 232.88 86.6201C232.029 78.8635 228.349 71.6928 222.543 66.4792C216.737 61.2656 209.214 58.375 201.41 58.3601Z" fill="#263238"></path><path d="M223.46 94.5905C223.974 93.5383 224.195 92.3674 224.1 91.2005C223.9 88.7805 221.19 84.3205 220.1 83.1105C219.01 81.9005 217.23 83.3305 217.23 83.3305L215.23 79.7405C214.102 77.6476 212.57 75.7996 210.722 74.3038C208.874 72.8079 206.748 71.6941 204.466 71.0269C202.184 70.3598 199.792 70.1526 197.43 70.4173C195.067 70.6821 192.78 71.4136 190.703 72.5693C188.625 73.725 186.798 75.2819 185.327 77.1496C183.856 79.0174 182.771 81.1587 182.134 83.4493C181.497 85.7399 181.322 88.1342 181.619 90.4931C181.915 92.852 182.677 95.1285 183.86 97.1905L188 104.64L185.68 100.88C185.68 100.88 183.56 101.61 183.99 103.2C184.42 104.79 186.78 109.45 188.73 110.89C189.729 111.645 190.93 112.084 192.18 112.15L197.65 121.98C200.059 122.251 202.491 122.251 204.9 121.98C210.036 121.424 214.961 119.637 219.259 116.771C223.557 113.906 227.101 110.047 229.59 105.52L223.46 94.5905Z" fill="#263238"></path><path d="M201.421 122.7C200.131 122.702 198.842 122.628 197.561 122.48H197.311L191.851 112.66C190.602 112.534 189.411 112.075 188.401 111.33C186.281 109.76 183.911 104.97 183.481 103.33C183.376 102.747 183.485 102.146 183.788 101.637C184.092 101.128 184.568 100.746 185.131 100.56L183.391 97.4403C181.104 93.172 180.587 88.176 181.952 83.5301C183.316 78.8841 186.452 74.9607 190.683 72.6063C194.914 70.2519 199.901 69.6551 204.568 70.9449C209.236 72.2346 213.209 75.3074 215.631 79.5003L217.371 82.6103C217.812 82.2862 218.352 82.1251 218.899 82.1543C219.446 82.1834 219.966 82.4011 220.371 82.7703C221.511 83.9803 224.371 88.5203 224.541 91.1503C224.64 92.3201 224.444 93.4962 223.971 94.5703L230.081 105.57L229.951 105.82C227.416 110.412 223.815 114.328 219.45 117.236C215.085 120.144 210.084 121.96 204.871 122.53C203.725 122.65 202.573 122.707 201.421 122.7ZM197.931 121.51C204.107 122.19 210.347 121.035 215.871 118.19C221.395 115.344 225.958 110.934 228.991 105.51L222.891 94.5103L223.011 94.2703C223.488 93.3034 223.692 92.2246 223.601 91.1503C223.411 88.8603 220.761 84.5103 219.691 83.3703C218.901 82.5203 217.571 83.5803 217.511 83.6303L217.051 84.0003L214.761 80.0003C213.644 77.9983 212.145 76.2358 210.347 74.8133C208.55 73.3909 206.49 72.3364 204.285 71.7101C202.08 71.0837 199.773 70.8978 197.497 71.163C195.22 71.4281 193.018 72.1391 191.016 73.2553C189.014 74.3716 187.251 75.8712 185.829 77.6686C184.406 79.466 183.352 81.526 182.725 83.7309C181.46 88.1839 182.016 92.9571 184.271 97.0003L188.411 104.45L187.551 104.95L185.451 101.56C184.981 101.81 184.231 102.32 184.451 103.12C184.861 104.63 187.161 109.18 189.011 110.54C189.932 111.234 191.039 111.637 192.191 111.7H192.471L197.931 121.51Z" fill="#263238"></path><path d="M215.001 85.5898C213.249 82.4482 210.322 80.1305 206.862 79.1461C203.403 78.1616 199.694 78.591 196.551 80.3398L194.101 81.6998C190.959 83.4514 188.641 86.3786 187.657 89.8382C186.672 93.2978 187.102 97.0067 188.851 100.15L201.121 122.15C202.36 122.159 203.598 122.099 204.831 121.97C209.394 121.475 213.798 120.006 217.745 117.664C221.692 115.321 225.09 112.158 227.711 108.39L215.001 85.5898Z" fill="white"></path><path d="M201.421 122.7H200.871L188.451 100.39C186.64 97.1297 186.198 93.2845 187.22 89.6981C188.241 86.1116 190.644 83.077 193.901 81.2601L196.351 79.9001C199.609 78.0905 203.453 77.648 207.038 78.6698C210.623 79.6917 213.656 82.0942 215.471 85.3501L228.341 108.47L228.161 108.73C225.495 112.553 222.041 115.76 218.033 118.137C214.024 120.514 209.553 122.005 204.921 122.51C203.758 122.639 202.59 122.702 201.421 122.7ZM203.171 79.1301C200.955 79.1285 198.776 79.693 196.841 80.7701L194.391 82.1401C191.365 83.8248 189.132 86.6414 188.181 89.9712C187.231 93.3011 187.641 96.8721 189.321 99.9001L201.461 121.7C202.58 121.701 203.698 121.64 204.811 121.52C209.25 121.035 213.537 119.617 217.389 117.357C221.241 115.098 224.571 112.048 227.161 108.41L214.601 85.8401C213.467 83.8042 211.809 82.1086 209.799 80.9288C207.79 79.749 205.501 79.128 203.171 79.1301Z" fill="#263238"></path><path d="M200 99.0004C200.46 99.8304 200.43 100.73 199.93 101C199.43 101.27 198.65 100.84 198.19 100C197.73 99.1604 197.76 98.2704 198.26 98.0004C198.76 97.7304 199.49 98.1204 200 99.0004Z" fill="#263238"></path><path d="M210.12 93.2902C210.58 94.1202 210.55 95.0202 210.05 95.2902C209.55 95.5602 208.77 95.1202 208.3 94.2902C207.83 93.4602 207.88 92.5702 208.38 92.2902C208.88 92.0102 209.66 92.4702 210.12 93.2902Z" fill="#263238"></path><path d="M205.81 103.78L205.39 102.87L209.56 100.95L204.74 94.9503L205.52 94.3203L211.14 101.33L205.81 103.78Z" fill="#263238"></path><path d="M212.88 106.5C213.046 106.795 213.12 107.133 213.093 107.471C213.067 107.808 212.94 108.13 212.731 108.396C212.521 108.662 212.237 108.859 211.914 108.963C211.592 109.067 211.246 109.073 210.921 108.981C210.595 108.888 210.304 108.701 210.085 108.443C209.866 108.185 209.728 107.867 209.69 107.531C209.651 107.195 209.713 106.854 209.868 106.553C210.023 106.252 210.264 106.004 210.56 105.84C210.956 105.621 211.422 105.568 211.857 105.691C212.291 105.815 212.659 106.106 212.88 106.5Z" fill="#263238"></path><path d="M193.36 97.9001L192.36 97.6701C192.36 97.6701 193.26 94.1301 197.78 93.8301L197.84 94.8301C194.08 95.0801 193.37 97.8701 193.36 97.9001Z" fill="#263238"></path><path d="M204.881 90.6102L203.931 90.2902C203.931 90.2902 205.231 86.5102 210.061 87.5602L209.851 88.5602C205.921 87.6802 204.921 90.4902 204.881 90.6102Z" fill="#263238"></path><path d="M211.92 118.42C210.341 118.379 208.773 118.148 207.25 117.73L207.52 116.73C209.407 117.263 211.377 117.443 213.33 117.26C215.311 116.919 217.119 115.918 218.46 114.42C219.349 112.838 220.057 111.161 220.57 109.42L221.57 109.73C221.51 109.89 220.27 113.73 219.29 115C217.805 116.701 215.777 117.835 213.55 118.21C213.015 118.334 212.469 118.405 211.92 118.42Z" fill="#263238"></path><path d="M177.72 108.62C176.978 101.961 178.335 95.2355 181.601 89.3845C184.868 83.5334 189.88 78.8488 195.938 75.9849C201.996 73.1211 208.797 72.2211 215.392 73.4107C221.986 74.6004 228.045 77.8202 232.72 82.6204C231.587 77.7885 229.35 73.2843 226.187 69.4604C223.023 65.6364 219.017 62.5964 214.483 60.578C209.949 58.5597 205.009 57.6179 200.05 57.8262C195.091 58.0345 190.248 59.3874 185.899 61.7789C181.55 64.1704 177.814 67.5357 174.982 71.6116C172.15 75.6874 170.299 80.3633 169.575 85.2733C168.851 90.1833 169.272 95.1943 170.807 99.9142C172.341 104.634 174.947 108.935 178.42 112.48C178.111 111.209 177.877 109.92 177.72 108.62Z" fill="white"></path><path d="M179.3 114.15L178 112.88C174.481 109.279 171.841 104.914 170.288 100.124C168.735 95.3346 168.31 90.2509 169.047 85.2701C169.784 80.2892 171.662 75.5462 174.536 71.4116C177.409 67.2769 181.199 63.8626 185.611 61.4353C190.022 59.008 194.935 57.6335 199.965 57.4192C204.996 57.205 210.008 58.1566 214.609 60.2C219.211 62.2433 223.278 65.3229 226.493 69.1982C229.707 73.0735 231.982 77.6396 233.14 82.5397L233.55 84.2897L232.34 82.9997C227.737 78.288 221.779 75.1293 215.297 73.9635C208.814 72.7977 202.129 73.6829 196.173 76.4958C190.217 79.3088 185.286 83.9093 182.068 89.6566C178.851 95.4039 177.505 102.012 178.22 108.56C178.363 109.853 178.587 111.135 178.89 112.4L179.3 114.15ZM201.41 58.3597C200.261 58.3635 199.113 58.4269 197.97 58.5497C189.624 59.4681 181.983 63.6591 176.723 70.2035C171.462 76.7479 169.012 85.1114 169.91 93.4597C170.591 99.9127 173.257 105.996 177.54 110.87C177.41 110.13 177.3 109.4 177.23 108.67C176.513 102.071 177.824 95.4101 180.988 89.5748C184.151 83.7396 189.018 79.0068 194.939 76.0071C200.861 73.0074 207.555 71.883 214.132 72.7839C220.708 73.6848 226.854 76.5681 231.75 81.0497C229.811 74.5044 225.811 68.76 220.344 64.6716C214.877 60.5833 208.237 58.3695 201.41 58.3597Z" fill="#263238"></path><path d="M254.47 127.572C262.42 126.709 268.074 118.727 267.098 109.744C266.123 100.762 258.887 94.1799 250.936 95.0436C242.986 95.9073 237.332 103.889 238.308 112.872C239.284 121.854 246.52 128.436 254.47 127.572Z" fill="#D9FF97"></path><path d="M253.07 128.15C245.44 128.15 238.75 121.62 237.81 112.92C237.292 108.585 238.377 104.211 240.86 100.62C241.984 98.931 243.465 97.5093 245.199 96.4559C246.933 95.4026 248.877 94.7433 250.894 94.5248C252.911 94.3063 254.951 94.534 256.87 95.1916C258.79 95.8492 260.541 96.9207 262 98.3303C265.161 101.334 267.152 105.363 267.617 109.699C268.082 114.034 266.992 118.394 264.54 122C263.281 123.89 261.576 125.441 259.576 126.516C257.575 127.59 255.341 128.155 253.07 128.16V128.15ZM252.35 95.4603C251.896 95.4584 251.442 95.4818 250.99 95.5303C249.123 95.7548 247.326 96.3771 245.72 97.3552C244.114 98.3333 242.736 99.6445 241.68 101.2C239.331 104.587 238.306 108.718 238.8 112.81C239.74 121.51 246.8 127.91 254.42 127.08C256.287 126.855 258.083 126.232 259.689 125.254C261.295 124.276 262.673 122.965 263.73 121.41C266.028 117.997 267.045 113.882 266.6 109.791C266.155 105.701 264.278 101.9 261.3 99.0603C258.874 96.78 255.679 95.495 252.35 95.4603Z" fill="#263238"></path><path d="M286 98.3705C279.305 96.848 272.466 96.0534 265.6 96.0005C252.96 95.7005 245.53 96.9205 243.13 103.21C240.73 109.5 241.28 119.66 249.07 123.02C253.42 124.89 259.8 123.81 264.45 122.75C269.1 121.69 280.45 116.94 284.07 111.23C287.69 105.52 287.72 101 286 98.3705Z" fill="white"></path><path d="M255 124.5C252.916 124.557 250.842 124.196 248.9 123.44C240.69 119.9 240.35 109.15 242.7 102.99C245.25 96.2903 253.05 95.1603 265.7 95.4603C272.616 95.5362 279.505 96.3475 286.25 97.8803L286.43 97.9403L286.54 98.1003C288.6 101.3 287.89 106.17 284.54 111.46C280.8 117.46 268.93 122.2 264.61 123.19C261.465 123.981 258.242 124.42 255 124.5ZM262.19 96.4203C252.05 96.4203 245.75 97.8003 243.63 103.35C241.42 109.14 241.69 119.24 249.29 122.52C253.58 124.36 259.95 123.23 264.37 122.22C268.57 121.22 280.09 116.64 283.68 110.92C286.68 106.15 287.44 101.64 285.75 98.8003C279.138 97.3337 272.392 96.5496 265.62 96.4603C264.4 96.4403 263.26 96.4203 262.16 96.4203H262.19Z" fill="#263238"></path><path d="M299.271 108C299.271 108 295.091 100.47 287.271 98.3697C279.451 96.2697 272.331 101.37 269.091 106.37C265.851 111.37 267.291 113.01 267.291 113.01C267.291 113.01 278.711 107.29 284.621 106.22C290.531 105.15 299.271 108 299.271 108Z" fill="#D9FF97"></path><path d="M267.19 113.63L266.94 113.34C266.77 113.14 265.35 111.24 268.7 106.1C272.23 100.67 279.61 95.79 287.43 97.89C295.25 99.99 299.53 107.44 299.71 107.75L300.33 108.87L299.12 108.47C299.03 108.47 290.45 105.69 284.74 106.72C279.03 107.75 267.65 113.4 267.54 113.46L267.19 113.63ZM283.66 98.39C277.66 98.39 272.34 102.39 269.54 106.64C267.39 109.93 267.4 111.64 267.54 112.33C269.79 111.23 279.24 106.68 284.54 105.73C289.2 104.89 295.43 106.38 298.1 107.13C296.62 105 292.86 100.39 287.15 98.85C286.012 98.5443 284.839 98.3897 283.66 98.39Z" fill="#263238"></path><path d="M267 118.081C267 118.081 265.16 112.821 272.55 105.991C279.94 99.1605 293.55 101.621 297.92 106.181C302.29 110.741 301.82 118.781 298.31 122.671C296.401 124.887 294.005 126.632 291.31 127.771C291.31 127.771 284.46 116.051 267 118.081Z" fill="white"></path><path d="M291.11 128.38L290.9 128.02C290.84 127.91 283.96 116.61 267.09 118.58H266.69L266.55 118.2C266.48 117.97 264.7 112.54 272.24 105.58C279.78 98.6201 293.52 100.83 298.31 105.78C302.95 110.57 302.31 118.94 298.72 122.95C296.754 125.235 294.282 127.029 291.5 128.19L291.11 128.38ZM270.96 117.38C284.02 117.38 290.27 125.38 291.53 127.18C293.989 126.039 296.182 124.398 297.97 122.36C301.3 118.67 301.86 110.96 297.6 106.56C293.6 102.41 280.39 99.4801 272.92 106.39C267.01 111.85 267.2 116.28 267.41 117.57C268.602 117.433 269.8 117.36 271 117.35L270.96 117.38Z" fill="#263238"></path><path d="M260.87 128.42C260.87 128.42 263.7 121 267 118.08C270.3 115.16 280.28 113.98 287.7 116.54C295.12 119.1 293.81 127.64 292.42 130.31C291.03 132.98 286.78 135.13 286.78 135.13L260.87 128.42Z" fill="white"></path><path d="M286.87 135.66L260.2 128.76L260.4 128.24C260.52 127.93 263.31 120.64 266.7 117.71C270.09 114.78 280.12 113.38 287.89 116.06C289.108 116.434 290.226 117.078 291.161 117.944C292.096 118.809 292.824 119.875 293.29 121.06C294.401 124.154 294.257 127.56 292.89 130.55C291.45 133.34 287.21 135.49 287.04 135.55L286.87 135.66ZM261.54 128.08L286.75 134.6C287.53 134.18 290.86 132.29 292.01 130.08C293.228 127.344 293.353 124.246 292.36 121.42C291.944 120.372 291.298 119.432 290.469 118.668C289.639 117.905 288.649 117.338 287.57 117.01C280.22 114.48 270.5 115.74 267.35 118.46C264.66 120.8 262.25 126.35 261.54 128.08Z" fill="#263238"></path><path d="M261.71 127.21C260.555 127.541 259.516 128.189 258.71 129.08C257.32 130.727 255.622 132.086 253.71 133.08C250.71 134.81 247.46 134.88 248.65 138.08C249.84 141.28 254.28 140.83 256.46 140.31C258.64 139.79 259.54 138.99 261.22 137.69C262.9 136.39 264.17 127.43 264.22 126.99C264.27 126.55 261.71 127.21 261.71 127.21Z" fill="white"></path><path d="M253.401 141.26C251.351 141.26 249.011 140.69 248.151 138.33C247.091 135.48 249.081 134.64 251.151 133.75C251.918 133.442 252.666 133.088 253.391 132.69C255.03 131.862 256.497 130.729 257.711 129.35L258.311 128.73C259.19 127.768 260.324 127.075 261.581 126.73C264.061 126.19 264.371 126.5 264.521 126.65L264.711 126.84V127.19C264.711 127.19 264.711 127.38 264.641 127.61C263.641 133.86 262.591 137.32 261.491 138.18L261.111 138.47C259.814 139.647 258.243 140.479 256.541 140.89C255.511 141.13 254.458 141.255 253.401 141.26ZM261.811 127.7C260.75 128.009 259.795 128.604 259.051 129.42L258.471 130.04C257.183 131.483 255.64 132.676 253.921 133.56C253.159 133.974 252.374 134.345 251.571 134.67C249.291 135.67 248.391 136.1 249.081 137.98C250.231 141.08 254.901 140.24 256.311 139.9C257.875 139.526 259.317 138.758 260.501 137.67L260.871 137.38C261.281 137.06 262.351 135.47 263.651 127.44C263.032 127.498 262.417 127.595 261.811 127.73V127.7Z" fill="#263238"></path><path d="M269.66 124.24C269.66 124.24 265.2 123.24 263.01 124.96C260.82 126.68 261.01 133.59 261.18 137.77C261.35 141.95 262.84 145.3 264.44 145.77C265.07 146.021 265.752 146.114 266.427 146.041C267.102 145.968 267.748 145.731 268.31 145.35C268.95 144.72 268.31 138.63 268.73 133.68C269.15 128.73 269.66 124.24 269.66 124.24Z" fill="white"></path><path d="M266.11 146.59C265.489 146.591 264.871 146.493 264.28 146.3C262.37 145.67 260.86 142.09 260.68 137.79C260.44 131.98 260.52 126.35 262.68 124.58C265.03 122.66 269.56 123.71 269.75 123.76L270.18 123.86L270.13 124.3C270.13 124.3 269.64 128.88 269.2 133.77C269 136.09 269.04 138.7 269.07 140.77C269.07 144.14 269.07 145.27 268.65 145.72C267.942 146.317 267.036 146.627 266.11 146.59ZM266.77 124.43C265.554 124.352 264.345 124.675 263.33 125.35C261.23 127.05 261.55 134.55 261.68 137.75C261.85 141.91 263.33 144.93 264.59 145.35C265.137 145.566 265.726 145.651 266.311 145.599C266.896 145.547 267.461 145.359 267.96 145.05C268.136 143.647 268.179 142.231 268.09 140.82C268.09 138.7 268.02 136.05 268.23 133.69C268.59 129.69 268.98 125.92 269.11 124.69C268.338 124.541 267.556 124.454 266.77 124.43Z" fill="#263238"></path><path d="M269.66 124.24C268.411 127.395 267.544 130.688 267.08 134.05C266.5 139.05 269.19 145.73 270.23 146.31C271.27 146.89 274.23 146.72 274.88 145.25C275.53 143.78 275.06 138.76 275.14 135.82C275.22 132.88 276.63 126.57 276.42 124.63C276.21 122.69 271.85 122.46 269.66 124.24Z" fill="white"></path><path d="M271.8 147.13C271.175 147.153 270.553 147.023 269.99 146.75C268.62 145.98 265.99 138.84 266.58 133.99C267.051 130.585 267.927 127.248 269.19 124.05L269.24 123.93L269.34 123.85C270.204 123.203 271.212 122.774 272.277 122.599C273.343 122.425 274.435 122.511 275.46 122.85C275.835 122.967 276.17 123.186 276.428 123.483C276.686 123.78 276.856 124.142 276.92 124.53C276.897 126.495 276.693 128.453 276.31 130.38C275.994 132.174 275.771 133.983 275.64 135.8C275.64 136.73 275.64 137.87 275.69 139.08C275.77 141.77 275.84 144.31 275.34 145.42C275.153 145.765 274.897 146.068 274.587 146.309C274.277 146.55 273.921 146.724 273.54 146.82C272.98 147.013 272.393 147.118 271.8 147.13ZM270.07 124.55C268.871 127.629 268.036 130.837 267.58 134.11C267 139.11 269.74 145.45 270.48 145.88C271.369 146.199 272.341 146.199 273.23 145.88C273.478 145.822 273.712 145.716 273.918 145.566C274.124 145.417 274.298 145.228 274.43 145.01C274.84 144.12 274.76 141.46 274.69 139.12C274.69 137.9 274.62 136.74 274.64 135.78C274.767 133.923 274.994 132.073 275.32 130.24C275.681 128.397 275.885 126.527 275.93 124.65C275.88 124.2 275.44 123.93 275.08 123.78C274.241 123.52 273.354 123.454 272.486 123.588C271.618 123.721 270.792 124.05 270.07 124.55Z" fill="#263238"></path><path d="M276.421 124.63C276.421 124.63 279.091 123.36 281.021 124.41C282.951 125.46 283.411 128.35 283.151 129.78C282.891 131.21 281.981 139.71 281.361 141.78C280.741 143.85 279.171 144.78 277.901 144.68C276.631 144.58 275.751 142.95 275.551 141.15C275.351 139.35 275.141 135.86 275.141 135.86L276.421 124.63Z" fill="white"></path><path d="M278.131 145.15H277.841C276.191 144.97 275.261 143.02 275.061 141.15C274.861 139.28 274.641 135.87 274.641 135.83L276.001 124.3L276.251 124.18C276.371 124.12 279.171 122.81 281.301 123.97C283.431 125.13 283.951 128.41 283.681 129.87C283.601 130.32 283.441 131.57 283.261 133.01C282.951 135.991 282.49 138.955 281.881 141.89C281.688 142.764 281.219 143.552 280.544 144.139C279.869 144.726 279.023 145.081 278.131 145.15ZM275.641 135.88C275.641 135.88 275.861 139.31 276.051 141.06C276.241 142.81 277.051 144.06 277.951 144.14C278.851 144.22 280.331 143.4 280.891 141.6C281.291 140.27 281.891 135.83 282.221 132.89C282.421 131.37 282.571 130.17 282.661 129.69C282.871 128.52 282.541 125.8 280.781 124.85C279.421 124.11 277.551 124.71 276.891 124.98L275.641 135.88Z" fill="#263238"></path><path d="M283.14 127.12C284.744 127.481 286.303 128.018 287.79 128.72C288.85 129.44 289.25 131.78 288.52 135.36C287.79 138.94 286.75 141.02 285.09 141.2C283.43 141.38 282.09 139.28 282.09 138.02C282.09 136.76 283.45 130 283.14 127.12Z" fill="white"></path><path d="M284.88 141.711C284.177 141.69 283.507 141.408 283 140.921C282.168 140.175 281.659 139.135 281.58 138.021C281.58 137.571 281.73 136.591 281.93 135.231C282.29 132.771 282.85 129.061 282.64 127.231L282.56 126.521L283.26 126.691C284.925 127.058 286.542 127.615 288.08 128.351C289.41 129.271 289.75 131.881 289.01 135.511C288.17 139.621 287.01 141.511 285.14 141.751L284.88 141.711ZM283.68 127.781C283.615 130.329 283.361 132.87 282.92 135.381C282.74 136.591 282.58 137.641 282.58 138.021C282.656 138.85 283.046 139.619 283.67 140.171C283.848 140.348 284.06 140.487 284.294 140.579C284.528 140.67 284.779 140.711 285.03 140.701C286.33 140.561 287.31 138.781 288.03 135.261C288.79 131.521 288.23 129.621 287.51 129.131C286.291 128.531 285.006 128.078 283.68 127.781Z" fill="#263238"></path><path d="M235.68 129.83C237.93 133.46 237.13 138.03 233.9 140.03C230.67 142.03 226.22 140.71 223.97 137.03C221.72 133.35 222.51 128.83 225.75 126.83C228.99 124.83 233.42 126.19 235.68 129.83Z" fill="#D9FF97"></path><path d="M230.59 141.46C229.163 141.424 227.768 141.027 226.535 140.307C225.302 139.586 224.272 138.566 223.54 137.34C222.401 135.535 221.964 133.376 222.31 131.27C222.464 130.286 222.827 129.346 223.374 128.513C223.92 127.68 224.638 126.973 225.48 126.44C228.95 124.3 233.71 125.7 236.1 129.56C237.237 131.365 237.678 133.523 237.34 135.63C237.185 136.615 236.821 137.556 236.272 138.389C235.724 139.222 235.004 139.928 234.16 140.46C233.087 141.12 231.85 141.467 230.59 141.46ZM229.06 126.46C227.984 126.453 226.928 126.748 226.01 127.31C225.287 127.768 224.67 128.375 224.201 129.091C223.732 129.806 223.421 130.614 223.29 131.46C222.989 133.325 223.384 135.237 224.4 136.83C226.5 140.23 230.64 141.48 233.63 139.63C234.353 139.172 234.97 138.565 235.439 137.849C235.908 137.133 236.219 136.326 236.35 135.48C236.654 133.616 236.262 131.705 235.25 130.11C234.613 129.025 233.711 128.119 232.628 127.477C231.546 126.835 230.318 126.478 229.06 126.44V126.46Z" fill="#263238"></path><path d="M218 142.07C219.58 144.62 219 147.82 216.76 149.22C214.52 150.62 211.38 149.7 209.76 147.15C208.14 144.6 208.76 141.4 211 139.99C213.24 138.58 216.38 139.52 218 142.07Z" fill="#263238"></path><path d="M232.46 148.16C234.04 150.71 233.46 153.91 231.22 155.31C228.98 156.71 225.84 155.79 224.22 153.24C222.6 150.69 223.22 147.49 225.46 146.08C227.7 144.67 230.89 145.61 232.46 148.16Z" fill="#ABABAB"></path><path d="M228.891 156.47C228.366 156.466 227.844 156.389 227.341 156.24C225.884 155.776 224.64 154.807 223.835 153.507C223.03 152.206 222.716 150.661 222.951 149.15C223.062 148.44 223.325 147.762 223.721 147.163C224.118 146.564 224.639 146.057 225.25 145.677C225.86 145.298 226.545 145.054 227.258 144.963C227.971 144.872 228.695 144.936 229.381 145.15C230.847 145.601 232.097 146.577 232.891 147.89C234.611 150.67 233.981 154.18 231.481 155.73C230.703 156.213 229.806 156.469 228.891 156.47ZM227.831 145.93C227.103 145.923 226.388 146.124 225.771 146.51C225.279 146.817 224.859 147.227 224.541 147.713C224.224 148.198 224.015 148.746 223.931 149.32C223.728 150.596 223.989 151.902 224.665 153.003C225.342 154.103 226.391 154.925 227.621 155.32C228.171 155.497 228.754 155.553 229.328 155.486C229.902 155.419 230.456 155.229 230.951 154.93C232.951 153.67 233.471 150.77 232.041 148.46C231.376 147.359 230.329 146.541 229.101 146.16C228.691 146.021 228.263 145.943 227.831 145.93Z" fill="#263238"></path></svg>